#!OML:ASF C:\ViconDB\ViconDB\414\Spring2016\041811\Spring2016.ASF
:FULLY-SPECIFIED
:DEGREES
198
root 10.3026 18.1448 -13.6466 -180.069 1.33309 -179.776
lowerback 1.8911 1.63444 -4.01973
upperback 1.18939 2.16734 -0.700346
thorax 0.0409806 1.08817 1.49067
lowerneck -10.0345 -3.76424 -8.76381
upperneck 17.7897 -8.71775 17.9531
head 8.32945 -3.78016 6.57144
rclavicle 1.61513e-015 -2.82274e-014
rhumerus -41.9758 -21.3555 -81.3919
rradius 33.5339
rwrist 41.6006
rhand -34.5119 -13.803
rfingers 7.12502
rthumb -7.6737 -43.6438
lclavicle 1.61513e-015 -2.82274e-014
lhumerus -37.39 -0.927922 89.6582
lradius 24.1396
lwrist -31.3244
lhand -28.4121 16.5895
lfingers 7.12502
lthumb -1.7839 46.5618
rfemur 130.112 21.8406 -176.43
rtibia 48.4739
rfoot 23.8439 -77.601
rtoes 5.725e-014
lfemur -20.2219 -1.33904 -19.9406
ltibia 30.8672
lfoot -14.189 0.590258
ltoes 3.57812e-015
199
root 10.2842 18.18 -13.7926 -180.213 1.20585 -179.881
lowerback 2.08659 1.42158 -4.19552
upperback 1.19275 1.87546 -0.776345
thorax -0.051448 0.945429 1.51221
lowerneck -9.84967 -3.60318 -8.59967
upperneck 17.7028 -8.50877 17.9024
head 8.2238 -3.69022 6.54771
rclavicle -3.73218e-014 1.51076e-014
rhumerus -42.2713 -21.3081 -81.5976
rradius 33.4571
rwrist 42.0346
rhand -34.2633 -13.5905
rfingers 7.12502
rthumb -7.43376 -43.4399
lclavicle -3.73218e-014 1.51076e-014
lhumerus -37.0241 -1.58017 89.6503
lradius 24.7089
lwrist -30.6498
lhand -28.2323 16.5009
lfingers 7.12502
lthumb -1.61026 46.4746
rfemur 129.208 21.9376 -176.488
rtibia 50.9213
rfoot 28.6769 -77.817
rtoes 1.44715e-013
lfemur -19.0065 -1.44724 -20.1268
ltibia 29.9825
lfoot -14.4869 0.443679
ltoes 7.63333e-014
200
root 10.2642 18.2075 -13.9436 -180.365 1.12568 -179.84
lowerback 2.16181 1.29543 -4.1991
upperback 1.31394 1.71072 -0.746866
thorax 0.0394836 0.861249 1.54855
lowerneck -9.95546 -3.59758 -8.66869
upperneck 17.7292 -8.47897 17.8951
head 8.25033 -3.67285 6.56084
rclavicle -1.68967e-015 1.86858e-014
rhumerus -42.35 -21.027 -81.8733
rradius 33.5376
rwrist 41.7421
rhand -33.8642 -13.6439
rfingers 7.12502
rthumb -7.04846 -43.5065
lclavicle -1.68967e-015 1.86858e-014
lhumerus -36.2844 -2.34166 89.8352
lradius 24.8224
lwrist -31.3991
lhand -28.4913 16.6327
lfingers 7.12502
lthumb -1.86045 46.6043
rfemur 128.593 22.1765 -176.379
rtibia 52.9812
rfoot 34.4784 -77.8962
rtoes 6.83819e-014
lfemur -17.8069 -1.6393 -20.1533
ltibia 29.1804
lfoot -14.8288 0.331993
ltoes -1.78906e-014
201
root 10.2502 18.2309 -14.0868 -180.512 0.831105 -179.62
lowerback 2.38707 1.13177 -4.03419
upperback 1.37936 1.48686 -0.677525
thorax -0.00445416 0.750307 1.52901
lowerneck -9.94109 -3.61601 -8.81033
upperneck 17.6861 -8.46137 17.8966
head 8.23601 -3.67163 6.5883
rclavicle 2.91965e-014 -2.38542e-015
rhumerus -42.6335 -21.3978 -81.8456
rradius 33.697
rwrist 41.5773
rhand -33.8431 -13.4454
rfingers 7.12502
rthumb -7.02808 -43.3087
lclavicle 2.91965e-014 -2.38542e-015
lhumerus -35.6074 -2.57167 89.5411
lradius 25.1385
lwrist -33.409
lhand -27.7842 16.4803
lfingers 7.12502
lthumb -1.17744 46.4568
rfemur 128.266 22.5334 -176.018
rtibia 54.6582
rfoot 39.6412 -77.4583
rtoes 1.04958e-013
lfemur -16.7751 -2.03619 -20.0014
ltibia 28.5935
lfoot -15.1826 0.30614
ltoes -6.2816e-014
202
root 10.2425 18.2458 -14.2266 -180.733 0.540056 -179.828
lowerback 2.77596 0.955622 -4.33281
upperback 1.40771 1.23427 -0.754106
thorax -0.182452 0.629506 1.61731
lowerneck -9.89024 -3.55745 -8.73677
upperneck 17.6689 -8.40235 17.9039
head 8.2089 -3.64533 6.58424
rclavicle -6.80837e-015 7.95139e-015
rhumerus -42.9087 -21.5779 -81.9008
rradius 33.62
rwrist 42.2875
rhand -34.1735 -13.7482
rfingers 7.12502
rthumb -7.34704 -43.6006
lclavicle -6.80837e-015 7.95139e-015
lhumerus -35.0397 -3.44275 89.553
lradius 25.554
lwrist -33.3805
lhand -27.6554 16.1834
lfingers 7.12502
lthumb -1.0531 46.1606
rfemur 128.135 22.9666 -176.084
rtibia 56.0363
rfoot 43.085 -77.3248
rtoes -6.36111e-014
lfemur -15.7612 -2.41768 -20.3168
ltibia 28.1166
lfoot -15.5517 0.313409
ltoes 1.23246e-014
203
root 10.2246 18.2644 -14.3734 -180.835 0.351364 -179.584
lowerback 2.98121 0.800973 -4.087
upperback 1.40025 1.02001 -0.646548
thorax -0.290417 0.523689 1.59385
lowerneck -9.91192 -3.50719 -8.69014
upperneck 17.7914 -8.28379 17.6404
head 8.22034 -3.59591 6.49926
rclavicle -3.42904e-015 -5.56597e-015
rhumerus -43.2156 -21.5985 -81.8903
rradius 33.6717
rwrist 42.2645
rhand -34.1459 -13.7142
rfingers 7.12502
rthumb -7.32038 -43.5676
lclavicle -3.42904e-015 -5.56597e-015
lhumerus -34.5956 -4.42907 89.8686
lradius 25.977
lwrist -32.6303
lhand -28.0446 16.0829
lfingers 7.12502
lthumb -1.42903 46.0578
rfemur 128.545 23.3597 -175.526
rtibia 57.0237
rfoot 44.9269 -77.2266
rtoes -9.54166e-014
lfemur -14.8411 -2.93673 -20.1568
ltibia 27.6961
lfoot -16.0349 0.493979
ltoes 2.14687e-014
204
root 10.2087 18.2758 -14.5161 -180.989 0.120911 -179.491
lowerback 3.30975 0.653968 -4.03348
upperback 1.35784 0.807522 -0.610389
thorax -0.5054 0.421915 1.604
lowerneck -9.89821 -3.44289 -8.64808
upperneck 17.9611 -8.21173 17.5195
head 8.25483 -3.56815 6.46186
rclavicle 3.08116e-015 -2.50469e-014
rhumerus -43.7856 -22.0668 -81.7012
rradius 33.8856
rwrist 42.6236
rhand -34.1808 -13.6081
rfingers 7.12502
rthumb -7.35405 -43.4603
lclavicle 3.08116e-015 -2.50469e-014
lhumerus -34.2094 -5.31237 89.9934
lradius 26.4363
lwrist -32.135
lhand -28.3874 15.6407
lfingers 7.12502
lthumb -1.76005 45.6132
rfemur 129.153 23.8632 -175.122
rtibia 57.725
rfoot 45.6826 -77.4184
rtoes -5.40694e-014
lfemur -13.9481 -3.19309 -20.1789
ltibia 27.3446
lfoot -16.3879 0.453381
ltoes 2.26615e-014
205
root 10.1939 18.2874 -14.6666 -181.166 -0.0344748 -179.471
lowerback 3.59122 0.60356 -4.03658
upperback 1.3303 0.596718 -0.576908
thorax -0.683144 0.264925 1.64615
lowerneck -9.83385 -3.41936 -8.61786
upperneck 18.0613 -8.17525 17.3721
head 8.26165 -3.56233 6.41142
rclavicle -4.17448e-015 1.55052e-014
rhumerus -44.2485 -22.079 -81.6938
rradius 34.1161
rwrist 42.1533
rhand -34.0877 -13.511
rfingers 7.12502
rthumb -7.26426 -43.3663
lclavicle -4.17448e-015 1.55052e-014
lhumerus -33.861 -6.46899 90.2437
lradius 27.0494
lwrist -31.2541
lhand -28.5192 15.7665
lfingers 7.12502
lthumb -1.88736 45.7379
rfemur 130.037 24.2926 -174.754
rtibia 58.1153
rfoot 44.2876 -77.3014
rtoes -8.26944e-014
lfemur -12.9785 -3.85621 -20.3139
ltibia 27.0362
lfoot -16.9638 0.875237
ltoes -1.90833e-014
